<?xml version="1.0" encoding="UTF-8" standalone="no"?>
<!-- Created with Inkscape (http://www.inkscape.org/) -->

<svg
   xmlns:dc="http://purl.org/dc/elements/1.1/"
   xmlns:cc="http://creativecommons.org/ns#"
   xmlns:rdf="http://www.w3.org/1999/02/22-rdf-syntax-ns#"
   xmlns:svg="http://www.w3.org/2000/svg"
   xmlns="http://www.w3.org/2000/svg"
   xmlns:sodipodi="http://sodipodi.sourceforge.net/DTD/sodipodi-0.dtd"
   xmlns:inkscape="http://www.inkscape.org/namespaces/inkscape"
   width="552.07428"
   height="575.73584"
   id="svg2"
   version="1.1"
   inkscape:version="0.48.5 r10040"
   sodipodi:docname="ast-java-fact.svg">
  <defs
     id="defs4">
    <linearGradient
       id="linearGradient5246">
      <stop
         id="stop5248"
         offset="0"
         style="stop-color:#eaeaea;stop-opacity:1;" />
      <stop
         id="stop5250"
         offset="1"
         style="stop-color:#eaeaea;stop-opacity:0;" />
    </linearGradient>
    <inkscape:perspective
       sodipodi:type="inkscape:persp3d"
       inkscape:vp_x="0 : 526.18109 : 1"
       inkscape:vp_y="0 : 1000 : 0"
       inkscape:vp_z="744.09448 : 526.18109 : 1"
       inkscape:persp3d-origin="372.04724 : 350.78739 : 1"
       id="perspective2996" />
  </defs>
  <sodipodi:namedview
     id="base"
     pagecolor="#ffffff"
     bordercolor="#666666"
     borderopacity="1.0"
     inkscape:pageopacity="0.0"
     inkscape:pageshadow="2"
     inkscape:zoom="1"
     inkscape:cx="486.18305"
     inkscape:cy="52.066695"
     inkscape:document-units="px"
     inkscape:current-layer="layer1"
     showgrid="false"
     showguides="false"
     inkscape:guide-bbox="true"
     inkscape:window-width="2058"
     inkscape:window-height="1250"
     inkscape:window-x="0"
     inkscape:window-y="0"
     inkscape:window-maximized="0"
     inkscape:snap-global="false"
     width="744.09px"
     units="pt"
     fit-margin-top="0"
     fit-margin-left="0"
     fit-margin-right="0"
     fit-margin-bottom="0">
    <inkscape:grid
       type="xygrid"
       id="grid5460"
       empspacing="5"
       visible="true"
       enabled="true"
       snapvisiblegridlinesonly="true"
       originx="-14.962873px"
       originy="-464.26405px" />
  </sodipodi:namedview>
  <metadata
     id="metadata7">
    <rdf:RDF>
      <cc:Work
         rdf:about="">
        <dc:format>image/svg+xml</dc:format>
        <dc:type
           rdf:resource="http://purl.org/dc/dcmitype/StillImage" />
        <dc:title></dc:title>
      </cc:Work>
    </rdf:RDF>
  </metadata>
  <g
     inkscape:label="Layer 1"
     inkscape:groupmode="layer"
     id="layer1"
     transform="translate(-14.962873,-12.362183)">
    <g
       id="g5260">
      <path
         style="fill:none;stroke:#000000;stroke-width:3;stroke-linecap:butt;stroke-linejoin:miter;stroke-miterlimit:4;stroke-opacity:1;stroke-dasharray:none"
         d="m 249,179.36218 0,-134 131,128"
         id="path5743"
         inkscape:connector-curvature="0" />
      <path
         style="fill:none;stroke:#000000;stroke-width:3;stroke-linecap:butt;stroke-linejoin:miter;stroke-miterlimit:4;stroke-opacity:1;stroke-dasharray:none"
         d="m 120,176.36218 129,-129"
         id="path5739"
         inkscape:connector-curvature="0" />
      <path
         style="fill:none;stroke:#000000;stroke-width:3;stroke-linecap:butt;stroke-linejoin:miter;stroke-miterlimit:4;stroke-opacity:1;stroke-dasharray:none"
         d="m 50,307.36218 68,-131 71,129"
         id="path5745"
         inkscape:connector-curvature="0" />
      <path
         style="fill:none;stroke:#000000;stroke-width:3;stroke-linecap:butt;stroke-linejoin:miter;stroke-miterlimit:4;stroke-opacity:1;stroke-dasharray:none"
         d="m 311,306.36218 71,-131 80,133 0,127 -71,123"
         id="path5747"
         inkscape:connector-curvature="0" />
      <path
         style="fill:none;stroke:#000000;stroke-width:3;stroke-linecap:butt;stroke-linejoin:miter;stroke-miterlimit:4;stroke-opacity:1;stroke-dasharray:none"
         d="m 465,435.36218 64,122"
         id="path5749"
         inkscape:connector-curvature="0" />
      <rect
         ry="13.877571"
         y="12.362183"
         x="216"
         height="65.735855"
         width="71.037125"
         id="rect3014"
         style="fill:#eaeaea;fill-opacity:1;fill-rule:evenodd;stroke:none" />
      <flowRoot
         xml:space="preserve"
         id="flowRoot5462"
         style="font-size:40px;font-style:normal;font-weight:normal;line-height:125%;letter-spacing:0px;word-spacing:0px;fill:#000000;fill-opacity:1;stroke:none;font-family:Sans"
         transform="translate(59,-176)"><flowRegion
           id="flowRegion5464"><rect
             id="rect5466"
             width="57.253815"
             height="58.314072"
             x="180.24348"
             y="195.67548" /></flowRegion><flowPara
           id="flowPara5468"
           style="font-style:normal;font-variant:normal;font-weight:500;font-stretch:normal;font-family:DIN-Medium;-inkscape-font-specification:DIN-Medium Medium">if</flowPara></flowRoot>      <g
         id="g5494"
         transform="translate(-59.617798,-177.12808)">
        <rect
           ry="13.877571"
           y="319.49026"
           x="144.58067"
           height="65.735855"
           width="71.037125"
           id="rect5454"
           style="fill:#eaeaea;fill-opacity:1;fill-rule:evenodd;stroke:none" />
        <flowRoot
           transform="translate(-21.398675,129.54354)"
           xml:space="preserve"
           id="flowRoot5470"
           style="font-size:40px;font-style:normal;font-weight:normal;line-height:125%;letter-spacing:0px;word-spacing:0px;fill:#000000;fill-opacity:1;stroke:none;font-family:Sans"><flowRegion
             id="flowRegion5472"><rect
               id="rect5474"
               width="57.253815"
               height="58.314072"
               x="180.24348"
               y="195.67548" /></flowRegion><flowPara
             id="flowPara5476"
             style="font-style:normal;font-variant:normal;font-weight:500;font-stretch:normal;font-family:DIN-Medium;-inkscape-font-specification:DIN-Medium Medium">==</flowPara></flowRoot>      </g>
      <g
         id="g5501"
         transform="translate(-64.293427,-175.00757)">
        <rect
           style="fill:#eaeaea;fill-opacity:1;fill-rule:evenodd;stroke:none"
           id="rect5456"
           width="71.037125"
           height="65.735855"
           x="280.29343"
           y="317.36975"
           ry="13.877571" />
        <flowRoot
           style="font-size:40px;font-style:normal;font-weight:normal;line-height:125%;letter-spacing:0px;word-spacing:0px;fill:#000000;fill-opacity:1;stroke:none;font-family:Sans"
           id="flowRoot5478"
           xml:space="preserve"
           transform="translate(123.90507,131.71274)"><flowRegion
             id="flowRegion5480"><rect
               y="195.67548"
               x="180.24348"
               height="58.314072"
               width="57.253815"
               id="rect5482" /></flowRegion><flowPara
             style="font-style:normal;font-variant:normal;font-weight:500;font-stretch:normal;font-family:DIN-Medium;-inkscape-font-specification:DIN-Medium Medium"
             id="flowPara5484">1</flowPara></flowRoot>      </g>
      <g
         id="g5508"
         transform="translate(-59.403625,-176.06781)">
        <rect
           ry="13.877571"
           y="318.42999"
           x="405.40363"
           height="65.735855"
           width="71.037125"
           id="rect5458"
           style="fill:#eaeaea;fill-opacity:1;fill-rule:evenodd;stroke:none" />
        <flowRoot
           transform="translate(250.90507,137.71274)"
           xml:space="preserve"
           id="flowRoot5486"
           style="font-size:40px;font-style:normal;font-weight:normal;line-height:125%;letter-spacing:0px;word-spacing:0px;fill:#000000;fill-opacity:1;stroke:none;font-family:Sans"><flowRegion
             id="flowRegion5488"><rect
               id="rect5490"
               width="57.253815"
               height="58.314072"
               x="180.24348"
               y="195.67548" /></flowRegion><flowPara
             id="flowPara5492"
             style="font-style:normal;font-variant:normal;font-weight:500;font-stretch:normal;font-family:DIN-Medium;-inkscape-font-specification:DIN-Medium Medium">*</flowPara></flowRoot>      </g>
      <g
         id="g5531"
         transform="matrix(1.1843736,0.27743162,0.12414056,0.99226464,257.05253,185.76039)">
        <g
           id="g5543"
           transform="translate(-14.681115,35.346423)" />
      </g>
      <g
         id="g5550"
         transform="translate(-129.6178,-47.12808)">
        <g
           id="g5687">
          <rect
             ry="13.877571"
             y="319.49026"
             x="144.58067"
             height="65.735855"
             width="71.037125"
             id="rect5552"
             style="fill:#eaeaea;fill-opacity:1;fill-rule:evenodd;stroke:none" />
          <flowRoot
             transform="translate(-21.398675,135.54354)"
             xml:space="preserve"
             id="flowRoot5554"
             style="font-size:40px;font-style:normal;font-weight:normal;text-align:center;line-height:125%;letter-spacing:0px;word-spacing:0px;text-anchor:middle;fill:#000000;fill-opacity:1;stroke:none;font-family:Sans"><flowRegion
               id="flowRegion5556"><rect
                 style="text-align:center;text-anchor:middle"
                 id="rect5558"
                 width="69.253815"
                 height="66.314072"
                 x="166.24348"
                 y="188.67548" /></flowRegion><flowPara
               id="flowPara5560"
               style="font-style:normal;font-variant:normal;font-weight:500;font-stretch:normal;text-align:center;text-anchor:middle;font-family:DIN-Medium;-inkscape-font-specification:DIN-Medium Medium">n</flowPara></flowRoot>        </g>
      </g>
      <g
         id="g5694"
         transform="translate(-51.580673,-154.12808)">
        <rect
           ry="13.877571"
           y="426.49026"
           x="207.58067"
           height="65.735855"
           width="71.037125"
           id="rect5564"
           style="fill:#eaeaea;fill-opacity:1;fill-rule:evenodd;stroke:none" />
        <flowRoot
           transform="translate(51.601325,240.54354)"
           xml:space="preserve"
           id="flowRoot5566"
           style="font-size:40px;font-style:normal;font-weight:normal;line-height:125%;letter-spacing:0px;word-spacing:0px;fill:#000000;fill-opacity:1;stroke:none;font-family:Sans"><flowRegion
             id="flowRegion5568"><rect
               id="rect5570"
               width="57.253815"
               height="58.314072"
               x="180.24348"
               y="195.67548" /></flowRegion><flowPara
             id="flowPara5572"
             style="font-style:normal;font-variant:normal;font-weight:500;font-stretch:normal;font-family:DIN-Medium;-inkscape-font-specification:DIN-Medium Medium">0</flowPara></flowRoot>      </g>
      <g
         id="g5701"
         transform="translate(-97.617798,-161.12808)">
        <rect
           style="fill:#eaeaea;fill-opacity:1;fill-rule:evenodd;stroke:none"
           id="rect5576"
           width="71.037125"
           height="65.735855"
           x="372.58069"
           y="433.49026"
           ry="13.877571" />
        <flowRoot
           style="font-size:40px;font-style:normal;font-weight:normal;line-height:125%;letter-spacing:0px;word-spacing:0px;fill:#000000;fill-opacity:1;stroke:none;font-family:Sans"
           id="flowRoot5578"
           xml:space="preserve"
           transform="translate(216.60132,243.54354)"><flowRegion
             id="flowRegion5580"><rect
               y="195.67548"
               x="180.24348"
               height="58.314072"
               width="57.253815"
               id="rect5582" /></flowRegion><flowPara
             style="font-style:normal;font-variant:normal;font-weight:500;font-stretch:normal;font-family:DIN-Medium;-inkscape-font-specification:DIN-Medium Medium"
             id="flowPara5584">n</flowPara></flowRoot>      </g>
      <g
         id="g5708"
         transform="translate(-74.580688,-164.12808)">
        <rect
           ry="13.877571"
           y="436.49026"
           x="490.58069"
           height="65.735855"
           width="93.037125"
           id="rect5588"
           style="fill:#eaeaea;fill-opacity:1;fill-rule:evenodd;stroke:none" />
        <flowRoot
           transform="translate(322.60132,248.54354)"
           xml:space="preserve"
           id="flowRoot5590"
           style="font-size:40px;font-style:normal;font-weight:normal;line-height:125%;letter-spacing:0px;word-spacing:0px;fill:#000000;fill-opacity:1;stroke:none;font-family:Sans"><flowRegion
             id="flowRegion5592"><rect
               id="rect5594"
               width="120.25381"
               height="60.314072"
               x="180.24348"
               y="195.67548" /></flowRegion><flowPara
             id="flowPara5596"
             style="font-style:normal;font-variant:normal;font-weight:500;font-stretch:normal;font-family:DIN-Medium;-inkscape-font-specification:DIN-Medium Medium">fact</flowPara></flowRoot>      </g>
      <g
         id="g5715"
         transform="translate(-78.580688,-122.12805)">
        <rect
           style="fill:#eaeaea;fill-opacity:1;fill-rule:evenodd;stroke:none"
           id="rect5600"
           width="71.037125"
           height="65.735855"
           x="504.58069"
           y="524.49023"
           ry="13.877571" />
        <flowRoot
           style="font-size:40px;font-style:normal;font-weight:normal;line-height:125%;letter-spacing:0px;word-spacing:0px;fill:#000000;fill-opacity:1;stroke:none;font-family:Sans"
           id="flowRoot5602"
           xml:space="preserve"
           transform="translate(352.60132,334.54354)"><flowRegion
             id="flowRegion5604"><rect
               y="195.67548"
               x="180.24348"
               height="58.314072"
               width="57.253815"
               id="rect5606" /></flowRegion><flowPara
             style="font-style:normal;font-variant:normal;font-weight:500;font-stretch:normal;font-family:DIN-Medium;-inkscape-font-specification:DIN-Medium Medium"
             id="flowPara5608">-</flowPara></flowRoot>      </g>
      <flowRoot
         transform="translate(384.60132,429.54354)"
         xml:space="preserve"
         id="flowRoot5626"
         style="font-size:40px;font-style:normal;font-weight:normal;line-height:125%;letter-spacing:0px;word-spacing:0px;fill:#000000;fill-opacity:1;stroke:none;font-family:Sans"><flowRegion
           id="flowRegion5628"><rect
             id="rect5630"
             width="57.253815"
             height="58.314072"
             x="180.24348"
             y="195.67548" /></flowRegion><flowPara
           id="flowPara5632"
           style="font-style:normal;font-variant:normal;font-weight:500;font-stretch:normal;font-family:DIN-Medium;-inkscape-font-specification:DIN-Medium Medium">n1=11</flowPara></flowRoot>      <g
         id="g5733"
         style="stroke-width:3;stroke-miterlimit:4;stroke-dasharray:none"
         transform="translate(-74,-190)">
        <rect
           style="fill:#eaeaea;fill-opacity:1;fill-rule:evenodd;stroke:none"
           id="rect5624"
           width="71.037125"
           height="65.735855"
           x="570"
           y="712.36218"
           ry="13.877571" />
        <g
           transform="translate(16,92)"
           id="g5729"
           style="stroke-width:3;stroke-miterlimit:4;stroke-dasharray:none">
          <text
             xml:space="preserve"
             style="font-size:40px;font-style:normal;font-weight:normal;line-height:125%;letter-spacing:0px;word-spacing:0px;fill:#000000;fill-opacity:1;stroke:none;font-family:Sans"
             x="576"
             y="666.36218"
             id="text5634"
             sodipodi:linespacing="125%"><tspan
               sodipodi:role="line"
               id="tspan5636"
               x="576"
               y="666.36218"
               style="font-style:normal;font-variant:normal;font-weight:500;font-stretch:normal;font-family:DIN-Medium;-inkscape-font-specification:DIN-Medium Medium">1</tspan></text>
        </g>
      </g>
      <path
         style="fill:none;stroke:none"
         id="path5741"
         d="m 257.60025,49.19536 c -1.24768,26.65501 -1.14373,53.35402 -1.06837,80.03191 0.071,18.68101 0.36447,37.36 0.85643,56.0344 0.033,0.92901 0.061,1.85821 0.099,2.78702 0.0336,0.82096 0.0163,1.64825 0.13529,2.46123 0.0302,0.20607 0.34278,0.50884 0.1578,0.60455 -13.6925,7.08485 -11.74717,10.94893 -14.00428,5.34366 -0.93418,-2.07706 -0.271,-5.07644 -1.85106,-6.7542 -0.33522,-0.10541 -0.65762,-0.26775 -1.00567,-0.31624 -1.13515,-0.15814 -2.28393,-0.19503 -3.42513,-0.30102 -11.14902,-1.03542 -2.21221,-0.29466 -16.28085,-1.3778 -18.443,-1.41993 -7.08385,-0.5136 -26.7338,-2.12528 -20.58094,-1.88856 -41.15083,-4.47182 -61.21147,-9.57945 -3.88782,-0.98987 -7.80067,-1.94142 -11.56993,-3.31531 -3.56019,-1.29768 -6.9071,-3.11891 -10.36064,-4.67836 -8.69914,-4.79176 -16.54629,-10.85468 -23.08499,-18.34729 -4.67844,-5.36097 -8.31161,-11.39289 -11.79847,-17.55133 -2.50543,-4.97763 -4.54352,-10.25339 -5.45083,-15.77433 -0.37044,-2.25412 -0.43413,-3.83371 -0.596,-6.09193 -0.0375,-1.16281 -0.19945,-4.40625 -0.0168,-5.59991 0.99977,-6.53329 5.39255,-11.65044 9.38741,-16.61278 4.43171,-5.15595 9.82292,-9.24787 15.6852,-12.64364 11.90975,-6.8988 16.34192,-9.72327 27.38557,-13.81218 3.05127,-0.92219 6.59251,-2.24375 9.20465,0.49576 2.95069,3.09458 2.68276,7.81972 2.81799,11.71147 -0.2431,4.85215 -1.38792,9.53094 -3.08243,14.06471 -0.42865,1.14689 -0.88087,2.28843 -1.42237,3.38655 -0.26268,0.53268 -0.40713,1.33454 -0.98106,1.48735 -3.14249,0.83673 -6.44169,0.89776 -9.66254,1.34664 10.09492,-11.08689 20.88813,-21.52674 32.40998,-31.12673 2.41619,-2.01317 4.73871,-4.17256 7.3852,-5.87165 5.89817,-3.78671 12.12682,-7.0321 18.19023,-10.54814 2.09048,-0.0124 4.25242,-0.57929 6.27144,-0.0372 7.89661,2.12003 11.49788,13.34017 13.59423,19.93733 2.72672,8.58092 4.29436,17.25409 6.1334,26.04929 2.64026,17.01496 6.16444,34.63356 2.9758,51.85957 -1.5397,8.31789 -3.10169,10.65788 -6.45002,18.03782 -3.89201,6.55616 -8.42399,11.34346 -15.05897,15.09488 -5.77255,3.2638 -11.54657,6.54652 -17.52778,9.41005 -2.95123,1.41292 -7.8249,2.04785 -11.01087,2.60338 -7.0991,0.59264 -14.34685,0.0751 -20.5889,-3.57413 -0.41474,-0.336 -0.82949,-0.67199 -1.24423,-1.00799 0,0 12.5158,-7.84658 12.5158,-7.84658 l 0,0 c 0.34826,0.28518 0.69652,0.57037 1.04478,0.85556 5.95863,3.38583 12.86504,3.76466 19.57312,3.04089 1.7589,-0.34827 3.54251,-0.58919 5.2767,-1.04481 1.84754,-0.4854 6.17439,-3.54058 5.44946,-1.77325 -0.99507,2.4259 -4.83771,2.38657 -6.52447,4.39405 -1.41503,1.68409 3.90731,-2.06028 5.6696,-3.37664 5.17697,-3.86698 6.09579,-5.90902 10.0272,-11.13433 3.60255,-7.28815 5.22774,-9.50656 6.98253,-17.80318 3.61649,-17.09863 0.32367,-34.72384 -2.44943,-51.65306 -2.09196,-9.55851 -3.27142,-16.40322 -6.48345,-25.59778 -2.04154,-5.84398 -5.88888,-16.6797 -13.26075,-18.15366 -1.86204,-0.37231 -3.78742,0.2804 -5.68113,0.4206 1.7114,-1.0595 6.49238,-4.66404 5.1342,-3.17851 -2.16891,2.37229 -5.13439,3.87118 -7.62511,5.90299 -11.39814,9.29805 -22.11683,19.45041 -31.71277,30.60808 -5.64187,3.28998 -11.22849,6.67661 -16.92563,9.86993 -0.5402,0.30279 1.08748,-0.66961 1.43092,-1.18493 0.68213,-1.02353 1.10652,-2.19937 1.58087,-3.33423 1.81677,-4.34666 3.04461,-8.87249 3.32858,-13.5929 -0.0867,-3.18727 0.33693,-7.78638 -2.33771,-10.25575 -2.25775,-2.08447 -5.85873,-0.28816 -8.20799,0.31696 -1.43865,0.54365 -2.89531,1.04183 -4.31594,1.63095 -1.71592,0.71158 -6.15378,3.7922 -5.08977,2.2695 1.40783,-2.01474 4.47336,-2.21725 6.24425,-3.92168 1.66542,-1.60292 -4.01359,2.30389 -5.92058,3.61016 -1.85759,1.27243 -3.66151,2.63305 -5.35686,4.11477 -1.56806,1.37045 -2.94147,2.94881 -4.4122,4.42321 -3.80028,4.59788 -8.24939,9.47152 -9.34684,15.57447 -0.23374,1.29978 -0.1071,4.21083 -0.0814,5.48407 0.39073,7.50444 1.87377,14.78122 5.32696,21.5404 2.47355,4.63602 3.39572,6.65915 6.47941,11.11875 7.09032,10.25396 16.25744,18.51987 27.25095,24.45764 3.39272,1.52806 6.69289,3.28097 10.17817,4.58419 3.67632,1.37465 7.47194,2.41738 11.26314,3.43316 19.95061,5.34536 40.50166,7.89856 61.0582,9.44877 14.73619,1.04045 13.07821,0.99728 27.25938,1.7254 3.40554,0.17485 6.81337,0.30289 10.21903,0.47528 1.29363,0.0655 8.67526,0.34154 10.90224,0.89108 0.52349,0.12918 0.9247,0.55485 1.38705,0.83228 0.25878,0.33806 0.57128,0.64107 0.77632,1.01418 1.01009,1.83798 0.4256,4.22007 1.31941,6.12068 2.16779,5.21564 0.26701,0.0547 -12.76835,7.71927 -0.14958,0.088 0.28842,0.47203 0.39704,0.33671 0.1879,-0.23407 0.0386,-0.59909 0.0542,-0.89884 0.0295,-0.56663 0.0588,-1.13329 0.0811,-1.70025 0.0378,-0.96246 0.066,-1.92528 0.099,-2.88792 0.48656,-18.96548 0.78439,-37.93527 0.85643,-56.90714 0.0741,-26.31455 0.20143,-52.65268 -1.06837,-78.94319 0,0 13.2005,-6.72599 13.2005,-6.72599 z"
         inkscape:connector-curvature="0" />
      <g
         id="g5722"
         transform="translate(-80.617798,-95.128052)">
        <rect
           ry="13.877571"
           y="617.49023"
           x="435.58069"
           height="65.735855"
           width="71.037125"
           id="rect5612"
           style="fill:#eaeaea;fill-opacity:1;fill-rule:evenodd;stroke:none" />
        <flowRoot
           transform="translate(279.60132,427.54354)"
           xml:space="preserve"
           id="flowRoot5614"
           style="font-size:40px;font-style:normal;font-weight:normal;line-height:125%;letter-spacing:0px;word-spacing:0px;fill:#000000;fill-opacity:1;stroke:none;font-family:Sans"><flowRegion
             id="flowRegion5616"><rect
               id="rect5618"
               width="57.253815"
               height="58.314072"
               x="180.24348"
               y="195.67548" /></flowRegion><flowPara
             id="flowPara5620"
             style="font-style:normal;font-variant:normal;font-weight:500;font-stretch:normal;font-family:DIN-Medium;-inkscape-font-specification:DIN-Medium Medium">n</flowPara></flowRoot>      </g>
    </g>
  </g>
</svg>
